<svg viewBox="0 0 90 90" xmlns="http://www.w3.org/2000/svg" xmlns:xlink="http://www.w3.org/1999/xlink" width="90.000000" height="90.000000" fill="none" customFrame="#000000">
	<defs>
		<clipPath id="clipPath_4">
			<rect width="90.000000" height="90.000000" x="0.000000" y="0.000000" fill="rgb(255,255,255)" />
		</clipPath>
		<clipPath id="clipPath_5">
			<rect width="90.000000" height="90.000000" x="0.000000" y="0.000000" fill="rgb(255,255,255)" />
		</clipPath>
	</defs>
	<rect id="Frame" width="90.000000" height="90.000000" x="0.000000" y="0.000000" />
	<rect id="Rectangle" width="90.000000" height="90.000000" x="0.000000" y="0.000000" fill="rgb(255,255,255)" />
	<g id="IMAGE" clip-path="url(#clipPath_4)" customFrame="url(#clipPath_4)">
		<rect id="IMAGE" width="90.000000" height="90.000000" x="0.000000" y="0.000000" />
		<path id="Vector" d="M47.6543 82.9512C27.4517 82.9512 11.0742 66.5737 11.0742 46.3711C11.0742 26.1685 27.4517 9.79102 47.6543 9.79102C67.8569 9.79102 84.2344 26.1685 84.2344 46.3711C84.2344 66.5737 67.8569 82.9512 47.6543 82.9512Z" stroke="rgb(0,0,0)" stroke-width="2" />
		<path id="Vector" d="M50.4492 38.7069C51.3457 38.3026 52.3125 38.0741 53.2793 38.0741C55.2305 38.0741 56.0918 39.1815 55.8633 41.3964C55.7402 42.7323 54.8789 44.6835 53.2969 47.2499C51.6973 49.8163 50.4844 51.0995 49.6758 51.0995C47.25 51.0995 45.791 39.4628 45.2812 36.2811C44.5957 31.869 42.75 29.7948 39.7793 30.0936C37.0371 30.3573 32.2559 35.2792 28.5117 38.619L30.3223 40.9745C32.0449 39.7616 33.0469 39.1464 33.3281 39.1464C36.3164 39.1464 37.7578 49.3241 40.0781 56.8827C41.6426 61.0663 43.5059 63.1405 45.7559 63.1405C49.3769 63.1405 53.7891 59.7128 59.0098 52.8573C64.0547 46.3007 66.6562 41.1327 66.832 37.3534L66.8496 37.3358C67.0605 32.2909 65.2148 29.6893 61.2598 29.6014C55.9512 29.4081 52.3476 32.4491 50.4492 38.7069Z" fill-rule="nonzero" stroke="rgb(0,0,0)" stroke-width="2" />
	</g>
	<g id="IMAGE" clip-path="url(#clipPath_5)" customFrame="url(#clipPath_5)">
		<rect id="IMAGE" width="90.000000" height="90.000000" x="0.000000" y="0.000000" />
		<path id="Vector" d="M47.6596 82.9457C67.8612 82.9457 84.2379 66.569 84.2379 46.3674C84.2379 26.1657 67.8612 9.78906 47.6596 9.78906C27.4579 9.78906 11.0812 26.1657 11.0812 46.3674C11.0812 66.569 27.4579 82.9457 47.6596 82.9457Z" fill="rgb(0,0,0)" fill-rule="evenodd" />
		<path id="Vector" d="M47.6596 82.9457C27.4579 82.9457 11.0812 66.569 11.0812 46.3674C11.0812 26.1657 27.4579 9.78906 47.6596 9.78906C67.8612 9.78906 84.2379 26.1657 84.2379 46.3674C84.2379 66.569 67.8612 82.9457 47.6596 82.9457Z" fill-rule="evenodd" stroke="rgb(0,0,0)" stroke-width="2" />
		<path id="Vector" d="M61.2668 29.6014C55.9494 29.4081 52.3582 32.4561 50.4633 38.6981C51.3539 38.288 52.3217 38.0729 53.3022 38.0671C55.2498 38.0671 56.1147 39.1797 55.8809 41.3928C55.7637 42.7346 54.9053 44.6864 53.3057 47.2481C51.7061 49.8098 50.4996 51.0924 49.6863 51.096C47.2553 51.096 45.7928 39.4592 45.2918 36.2811C44.6027 31.8643 42.767 29.7995 39.7846 30.0866C37.0459 30.3467 32.2682 35.2774 28.5135 38.619L30.317 40.971C32.035 39.7546 33.0369 39.1458 33.3229 39.1446C36.3111 39.1446 37.7596 49.3171 40.0799 56.8809C41.6373 61.0557 43.5059 63.144 45.7576 63.144C49.3729 63.144 53.7879 59.7174 59.0027 52.8643C64.0418 46.3018 66.6481 41.1333 66.8215 37.3587L66.8426 37.3428C67.0553 32.2874 65.2113 29.6981 61.2615 29.6085L61.2668 29.6014Z" fill="rgb(255,255,255)" fill-rule="nonzero" />
		<path id="Vector" d="M50.4633 38.6981C51.3539 38.288 52.3217 38.0729 53.3022 38.0671C55.2498 38.0671 56.1147 39.1797 55.8809 41.3928C55.7637 42.7346 54.9053 44.6864 53.3057 47.2481C51.7061 49.8098 50.4996 51.0924 49.6863 51.096C47.2553 51.096 45.7928 39.4592 45.2918 36.2811C44.6027 31.8643 42.767 29.7995 39.7846 30.0866C37.0459 30.3467 32.2682 35.2774 28.5135 38.619L30.317 40.971C32.035 39.7546 33.0369 39.1458 33.3229 39.1446C36.3111 39.1446 37.7596 49.3171 40.0799 56.8809C41.6373 61.0557 43.5059 63.144 45.7576 63.144C49.3729 63.144 53.7879 59.7174 59.0027 52.8643C64.0418 46.3018 66.6481 41.1333 66.8215 37.3587L66.8426 37.3428C67.0553 32.2874 65.2113 29.6981 61.2615 29.6085L61.2668 29.6014C55.9494 29.4081 52.3582 32.4561 50.4633 38.6981Z" fill-rule="nonzero" stroke="rgb(0,0,0)" stroke-width="2" />
	</g>
</svg>
