<svg viewBox="0 0 60 60" xmlns="http://www.w3.org/2000/svg" xmlns:xlink="http://www.w3.org/1999/xlink" width="60.000000" height="60.000000" fill="none">
	<rect id="IMAGE" width="60.000000" height="60.000000" x="0.000000" y="0.000000" />
	<path id="Vector" d="M30.0739 46.9939C26.9696 46.9925 23.9244 46.145 21.2658 44.5425C18.6072 42.9399 16.4356 40.643 14.9847 37.8987C13.5337 35.1544 12.8583 32.0665 13.031 28.9671C13.2036 25.8676 14.2179 22.8739 15.9646 20.3077C16.0077 20.2453 16.0626 20.1919 16.1262 20.1507C16.1899 20.1095 16.261 20.0812 16.3356 20.0675C16.4102 20.0538 16.4867 20.0549 16.5609 20.0708C16.635 20.0867 16.7053 20.117 16.7677 20.16C16.8302 20.203 16.8835 20.2579 16.9247 20.3216C16.9659 20.3852 16.9942 20.4564 17.0079 20.531C17.0216 20.6055 17.0205 20.6821 17.0046 20.7562C16.9888 20.8304 16.9585 20.9007 16.9154 20.9631C14.9457 23.8167 13.9649 27.237 14.1231 30.7008C14.2813 34.1646 15.5698 37.4813 17.7914 40.1435C20.013 42.8058 23.0455 44.667 26.4251 45.4426C29.8047 46.2182 33.3453 45.8654 36.5054 44.4382C39.6655 43.011 42.2711 40.588 43.9237 37.5398C45.5764 34.4915 46.1851 30.9859 45.6567 27.5589C45.1283 24.132 43.492 20.9725 40.9979 18.5636C38.5039 16.1547 35.2894 14.6291 31.8462 14.22L31.8462 31.5185C31.8462 31.6715 31.7854 31.8182 31.6772 31.9264C31.569 32.0346 31.4223 32.0954 31.2693 32.0954L20.3077 32.0954C20.1523 32.0954 20.0032 32.0336 19.8932 31.9237C19.7833 31.8138 19.7216 31.6647 19.7216 31.5092C19.7216 31.3538 19.7833 31.2047 19.8932 31.0948C20.0032 30.9848 20.1523 30.9231 20.3077 30.9231L30.6877 30.9231L30.6877 13.5831C30.6881 13.5031 30.7051 13.424 30.7377 13.3509C30.7703 13.2778 30.8177 13.2122 30.877 13.1585C30.934 13.1032 31.0023 13.061 31.0772 13.0347C31.1521 13.0084 31.2318 12.9987 31.3108 13.0062C34.553 13.2686 37.6528 14.4515 40.2456 16.4158C42.8383 18.38 44.8161 21.044 45.9463 24.0941C47.0765 27.1443 47.312 30.4538 46.6252 33.6333C45.9383 36.8127 44.3577 39.7299 42.0693 42.0415C40.4947 43.6166 38.6244 44.865 36.5658 45.7149C34.5072 46.5648 32.301 46.9994 30.0739 46.9939Z" fill="rgb(0,0,0)" fill-rule="nonzero" />
</svg>
